<svg width="32" height="32" viewBox="0 0 32 32" fill="none" xmlns="http://www.w3.org/2000/svg">
<path d="M29.333 9.66666H21.333C20.7863 9.66666 20.333 9.21332 20.333 8.66666C20.333 8.11999 20.7863 7.66666 21.333 7.66666H29.333C29.8797 7.66666 30.333 8.11999 30.333 8.66666C30.333 9.21332 29.8797 9.66666 29.333 9.66666Z" fill="#7585F6"/>
<path d="M8.00033 9.66666H2.66699C2.12033 9.66666 1.66699 9.21332 1.66699 8.66666C1.66699 8.11999 2.12033 7.66666 2.66699 7.66666H8.00033C8.54699 7.66666 9.00033 8.11999 9.00033 8.66666C9.00033 9.21332 8.54699 9.66666 8.00033 9.66666Z" fill="#7585F6"/>
<path d="M13.3337 14.3333C10.2137 14.3333 7.66699 11.7867 7.66699 8.66667C7.66699 5.54667 10.2137 3 13.3337 3C16.4537 3 19.0003 5.54667 19.0003 8.66667C19.0003 11.7867 16.4537 14.3333 13.3337 14.3333ZM13.3337 5C11.307 5 9.66699 6.64 9.66699 8.66667C9.66699 10.6933 11.307 12.3333 13.3337 12.3333C15.3603 12.3333 17.0003 10.6933 17.0003 8.66667C17.0003 6.64 15.3603 5 13.3337 5Z" fill="#7585F6"/>
<path d="M29.3333 24.3333H24C23.4533 24.3333 23 23.88 23 23.3333C23 22.7867 23.4533 22.3333 24 22.3333H29.3333C29.88 22.3333 30.3333 22.7867 30.3333 23.3333C30.3333 23.88 29.88 24.3333 29.3333 24.3333Z" fill="#7585F6"/>
<path d="M10.667 24.3333H2.66699C2.12033 24.3333 1.66699 23.88 1.66699 23.3333C1.66699 22.7867 2.12033 22.3333 2.66699 22.3333H10.667C11.2137 22.3333 11.667 22.7867 11.667 23.3333C11.667 23.88 11.2137 24.3333 10.667 24.3333Z" fill="#7585F6"/>
<path d="M18.6667 29C15.5467 29 13 26.4533 13 23.3333C13 20.2133 15.5467 17.6667 18.6667 17.6667C21.7867 17.6667 24.3333 20.2133 24.3333 23.3333C24.3333 26.4533 21.7867 29 18.6667 29ZM18.6667 19.6667C16.64 19.6667 15 21.3067 15 23.3333C15 25.36 16.64 27 18.6667 27C20.6933 27 22.3333 25.36 22.3333 23.3333C22.3333 21.3067 20.6933 19.6667 18.6667 19.6667Z" fill="#7585F6"/>
</svg>
