<svg width="20" height="20" viewBox="0 0 20 20" fill="none" xmlns="http://www.w3.org/2000/svg">
<path d="M9.00866 14.125C8.85033 14.125 8.69199 14.0666 8.56699 13.9416L7.31699 12.6916C7.07533 12.45 7.07533 12.05 7.31699 11.8083C7.55866 11.5666 7.95866 11.5666 8.20033 11.8083L9.00866 12.6166L11.9003 9.72495C12.142 9.48328 12.542 9.48328 12.7837 9.72495C13.0253 9.96662 13.0253 10.3666 12.7837 10.6083L9.45033 13.9416C9.33366 14.0666 9.16699 14.125 9.00866 14.125Z" fill="white"/>
<path d="M11.667 5.62496H8.33366C7.53366 5.62496 6.04199 5.62496 6.04199 3.33329C6.04199 1.04163 7.53366 1.04163 8.33366 1.04163H11.667C12.467 1.04163 13.9587 1.04163 13.9587 3.33329C13.9587 4.13329 13.9587 5.62496 11.667 5.62496ZM8.33366 2.29163C7.50866 2.29163 7.29199 2.29163 7.29199 3.33329C7.29199 4.37496 7.50866 4.37496 8.33366 4.37496H11.667C12.7087 4.37496 12.7087 4.15829 12.7087 3.33329C12.7087 2.29163 12.492 2.29163 11.667 2.29163H8.33366Z" fill="white"/>
<path d="M12.5 18.9583H7.5C2.81667 18.9583 1.875 16.8083 1.875 13.3333V8.33332C1.875 4.53332 3.25 2.90832 6.63333 2.73332C6.975 2.71665 7.275 2.97498 7.29167 3.32498C7.30833 3.67498 7.04167 3.95832 6.7 3.97498C4.33333 4.10832 3.125 4.81665 3.125 8.33332V13.3333C3.125 16.4166 3.73333 17.7083 7.5 17.7083H12.5C16.2667 17.7083 16.875 16.4166 16.875 13.3333V8.33332C16.875 4.81665 15.6667 4.10832 13.3 3.97498C12.9583 3.95832 12.6917 3.65832 12.7083 3.31665C12.725 2.97498 13.0167 2.70832 13.3667 2.72498C16.75 2.90832 18.125 4.53332 18.125 8.32498V13.325C18.125 16.8083 17.1833 18.9583 12.5 18.9583Z" fill="white"/>
</svg>
