<svg width="18" height="18" viewBox="0 0 18 18" fill="none" xmlns="http://www.w3.org/2000/svg">
<path d="M4.15548 14.64C3.69798 14.64 3.27048 14.4825 2.96298 14.19C2.57298 13.8225 2.38548 13.2675 2.45298 12.6675L2.73048 10.2375C2.78298 9.77998 3.06048 9.17248 3.38298 8.84248L9.54048 2.32498C11.078 0.697476 12.683 0.652476 14.3105 2.18998C15.938 3.72748 15.983 5.33248 14.4455 6.95998L8.28798 13.4775C7.97298 13.815 7.38798 14.13 6.93048 14.205L4.51548 14.6175C4.38798 14.625 4.27548 14.64 4.15548 14.64ZM11.948 2.18248C11.3705 2.18248 10.868 2.54248 10.358 3.08248L4.20048 9.60748C4.05048 9.76498 3.87798 10.14 3.84798 10.3575L3.57048 12.7875C3.54048 13.035 3.60048 13.2375 3.73548 13.365C3.87048 13.4925 4.07298 13.5375 4.32048 13.5L6.73548 13.0875C6.95298 13.05 7.31298 12.855 7.46298 12.6975L13.6205 6.17998C14.5505 5.18998 14.888 4.27498 13.5305 2.99998C12.9305 2.42248 12.413 2.18248 11.948 2.18248Z" fill="#6470AA"/>
<path d="M13.0044 8.21251C12.9894 8.21251 12.9669 8.21251 12.9519 8.21251C10.6119 7.98001 8.72935 6.20251 8.36935 3.87751C8.32435 3.57001 8.53435 3.28501 8.84185 3.23251C9.14935 3.18751 9.43435 3.39751 9.48685 3.70501C9.77185 5.52001 11.2419 6.91501 13.0719 7.09501C13.3794 7.12501 13.6044 7.40251 13.5744 7.71001C13.5369 7.99501 13.2894 8.21251 13.0044 8.21251Z" fill="#6470AA"/>
<path d="M15.75 17.0625H2.25C1.9425 17.0625 1.6875 16.8075 1.6875 16.5C1.6875 16.1925 1.9425 15.9375 2.25 15.9375H15.75C16.0575 15.9375 16.3125 16.1925 16.3125 16.5C16.3125 16.8075 16.0575 17.0625 15.75 17.0625Z" fill="#6470AA"/>
</svg>
