<svg width="32" height="32" viewBox="0 0 32 32" fill="none" xmlns="http://www.w3.org/2000/svg">
<path d="M16 11.5014C18.4839 11.5014 20.5 13.5176 20.5 16.0014C20.5 18.4853 18.4839 20.5014 16 20.5014C13.5161 20.5014 11.5 18.4853 11.5 16.0014C11.5 13.5176 13.5161 11.5014 16 11.5014ZM16 12.5014C14.0705 12.5014 12.5 14.072 12.5 16.0014C12.5 17.9309 14.0705 19.5014 16 19.5014C17.9295 19.5014 19.5 17.9309 19.5 16.0014C19.5 14.072 17.9295 12.5014 16 12.5014Z" stroke="#7585F6"/>
<path d="M10.3877 3.28491C11.6514 2.53561 13.3334 2.96862 14.1025 4.26929L14.1035 4.27222L14.2637 4.53882C14.6925 5.2771 15.2907 5.80151 16.0195 5.80151C16.7505 5.80143 17.3492 5.27286 17.7783 4.53101L17.9248 4.27808C18.6942 2.9686 20.373 2.53647 21.6494 3.29761L21.6562 3.30151L23.9502 4.62183C24.6454 5.02072 25.1483 5.66911 25.3682 6.46069H25.3691C25.577 7.25737 25.472 8.06968 25.0723 8.76636L25.0713 8.76733C24.8579 9.14268 24.7082 9.52315 24.6494 9.88452C24.5909 10.244 24.6169 10.6227 24.8076 10.948C25.1743 11.5734 25.9914 11.8083 26.8262 11.8083C28.4966 11.8084 29.8594 13.1711 29.8594 14.8416V17.1882C29.8593 18.8586 28.4966 20.2214 26.8262 20.2214C25.9914 20.2214 25.1743 20.4563 24.8076 21.0818C24.4379 21.7125 24.651 22.5439 25.0723 23.2625V23.2634C25.4496 23.921 25.5723 24.6851 25.4082 25.4148L25.3711 25.5603L25.3691 25.5681C25.1634 26.3567 24.6622 27.0057 23.9531 27.406L23.9512 27.408L21.6504 28.7234C21.2135 28.9648 20.7499 29.0876 20.2793 29.0876C20.0505 29.0876 19.8143 29.0549 19.5674 28.9968C18.8647 28.803 18.2801 28.3637 17.9082 27.7439L17.748 27.4773C17.3193 26.7393 16.7217 26.2148 15.9932 26.2146C15.2622 26.2146 14.6625 26.7424 14.2334 27.4841L14.0889 27.7341C13.7137 28.3707 13.1279 28.8178 12.4346 28.9968L12.4287 28.9988C11.7186 29.1903 10.9923 29.0886 10.377 28.7195L10.3691 28.7146L8.0752 27.3943L7.82227 27.2332C7.25674 26.8304 6.84718 26.2463 6.65527 25.5525C6.44847 24.7569 6.55402 23.9465 6.95312 23.2507L6.9541 23.2488C7.16753 22.8734 7.31715 22.493 7.37598 22.1316C7.43447 21.7721 7.40842 21.3933 7.21777 21.0681C6.85104 20.4427 6.03396 20.2078 5.19922 20.2078C3.52875 20.2077 2.16602 18.845 2.16602 17.1746V14.8279C2.16614 13.1575 3.52883 11.7947 5.19922 11.7947C6.03404 11.7947 6.85109 11.5599 7.21777 10.9343C7.58835 10.302 7.37357 9.46755 6.9502 8.7478C6.55259 8.05187 6.44975 7.22909 6.65625 6.44897V6.448C6.86196 5.65943 7.36319 5.01039 8.07227 4.61011L8.07422 4.60913L10.3809 3.28882L10.3877 3.28491ZM21.1133 4.14038C20.2955 3.65445 19.237 3.9463 18.7559 4.7605L18.7529 4.7644L18.6064 5.01733V5.01831C17.9071 6.23301 16.9432 6.83459 15.9863 6.83472C15.0891 6.83472 14.1857 6.30622 13.5 5.23901L13.3662 5.01831L13.2246 4.7605L13.2197 4.75269L13.2158 4.74585L13.1201 4.60327C12.6461 3.96523 11.7698 3.73166 11.0361 4.06323L10.8818 4.14233L8.57617 5.47534C8.11934 5.73894 7.76536 6.17898 7.62305 6.71265C7.4832 7.23709 7.55145 7.78736 7.81934 8.25171L7.82031 8.25269C8.51831 9.45275 8.55881 10.6041 8.08496 11.4333C7.61376 12.2578 6.60037 12.7947 5.19922 12.7947C4.06988 12.7947 3.16614 13.6986 3.16602 14.8279V17.1746C3.16602 18.2878 4.06698 19.2077 5.19922 19.2078C6.60018 19.2078 7.61368 19.7448 8.08496 20.5691C8.55879 21.3983 8.51822 22.5497 7.82031 23.7498L7.81934 23.7517C7.55161 24.2159 7.48336 24.7656 7.62305 25.2898C7.76518 25.8228 8.10372 26.2451 8.55078 26.5203L8.55762 26.5251L8.56445 26.5291L10.8711 27.8484V27.8474C11.2716 28.0898 11.7398 28.1419 12.165 28.031C12.6248 27.9146 12.9925 27.613 13.2246 27.238L13.2285 27.2312L13.2324 27.2253L13.3779 26.9714C14.0791 25.7665 15.0445 25.1552 15.999 25.155C16.9558 25.155 17.9197 25.7559 18.6191 26.9705L18.6201 26.9724L18.7666 27.2244C18.9961 27.6248 19.377 27.9082 19.8252 28.0203C20.2608 28.129 20.7192 28.0782 21.1104 27.8435L21.1094 27.8425L23.4092 26.5144C23.866 26.2508 24.22 25.8107 24.3623 25.2771C24.5022 24.7527 24.4339 24.2024 24.166 23.738L24.165 23.7371L24.042 23.5125C23.464 22.3941 23.4562 21.3339 23.9004 20.5564C24.3716 19.7318 25.3849 19.1951 26.7861 19.1951C27.9154 19.195 28.8191 18.2911 28.8193 17.1619V14.8152C28.8193 13.7019 27.9184 12.7811 26.7861 12.781C25.3849 12.781 24.3716 12.2442 23.9004 11.4197C23.4266 10.5904 23.4671 9.439 24.165 8.23901L24.166 8.23804C24.4339 7.7737 24.5022 7.2234 24.3623 6.69897C24.2201 6.16611 23.8816 5.74358 23.4346 5.46851L23.4209 5.46069L21.1143 4.14038H21.1133Z" stroke="#7585F6"/>
</svg>
