<svg width="32" height="32" viewBox="0 0 32 32" fill="none" xmlns="http://www.w3.org/2000/svg">
<path d="M14.5728 30.3334C13.9328 30.3334 13.2928 30.1734 12.7061 29.8534C11.5195 29.1867 10.8127 28 10.8127 26.6534V19.5201C10.8127 18.8401 10.3727 17.84 9.95939 17.32L4.89274 12C4.05274 11.16 3.39941 9.69336 3.39941 8.61336V5.52006C3.39941 3.37339 5.02611 1.69336 7.09277 1.69336H24.8794C26.9194 1.69336 28.5728 3.34672 28.5728 5.38672V8.34672C28.5728 9.74672 27.7328 11.36 26.9328 12.1467C26.5461 12.5334 25.9061 12.5334 25.5195 12.1467C25.1328 11.76 25.1328 11.12 25.5195 10.7334C26.0128 10.24 26.5728 9.13339 26.5728 8.34672V5.38672C26.5728 4.45339 25.8127 3.69336 24.8794 3.69336H7.09277C6.14611 3.69336 5.39941 4.49339 5.39941 5.52006V8.61336C5.39941 9.1067 5.79942 10.0801 6.31942 10.6001L11.4528 16C12.1328 16.84 12.7994 18.2534 12.7994 19.5201V26.6534C12.7994 27.5334 13.3994 27.96 13.6661 28.1067C14.2394 28.4267 14.9195 28.4134 15.4528 28.0934L17.3194 26.8934C17.7061 26.6667 18.0794 25.9334 18.0794 25.44C18.0794 24.8934 18.5328 24.44 19.0794 24.44C19.6261 24.44 20.0794 24.8934 20.0794 25.44C20.0794 26.64 19.3327 28.0134 18.3861 28.5867L16.5328 29.7867C15.9328 30.1467 15.2528 30.3334 14.5728 30.3334Z" fill="#7585F6"/>
<path d="M21.4268 23.0266C18.5202 23.0266 16.1602 20.6667 16.1602 17.76C16.1602 14.8533 18.5202 12.4933 21.4268 12.4933C24.3335 12.4933 26.6935 14.8533 26.6935 17.76C26.6935 20.6667 24.3335 23.0266 21.4268 23.0266ZM21.4268 14.4933C19.6268 14.4933 18.1602 15.96 18.1602 17.76C18.1602 19.56 19.6268 21.0266 21.4268 21.0266C23.2268 21.0266 24.6935 19.56 24.6935 17.76C24.6935 15.96 23.2268 14.4933 21.4268 14.4933Z" fill="#7585F6"/>
<path d="M26.493 23.8267C26.2397 23.8267 25.9864 23.7333 25.7864 23.5333L24.4531 22.2C24.0664 21.8133 24.0664 21.1733 24.4531 20.7867C24.8398 20.4 25.4797 20.4 25.8664 20.7867L27.1997 22.12C27.5864 22.5067 27.5864 23.1467 27.1997 23.5333C27.0131 23.72 26.7464 23.8267 26.493 23.8267Z" fill="#7585F6"/>
</svg>
