<svg width="24" height="24" viewBox="0 0 24 24" fill="none" xmlns="http://www.w3.org/2000/svg">
<path d="M12 12.75C8.83 12.75 6.25 10.17 6.25 7C6.25 3.83 8.83 1.25 12 1.25C15.17 1.25 17.75 3.83 17.75 7C17.75 10.17 15.17 12.75 12 12.75ZM12 2.75C9.66 2.75 7.75 4.66 7.75 7C7.75 9.34 9.66 11.25 12 11.25C14.34 11.25 16.25 9.34 16.25 7C16.25 4.66 14.34 2.75 12 2.75Z" fill="#0F172A"/>
<path d="M20.5901 22.752C20.1801 22.752 19.8401 22.412 19.8401 22.002C19.8401 18.552 16.3202 15.752 12.0002 15.752C7.68015 15.752 4.16016 18.552 4.16016 22.002C4.16016 22.412 3.82016 22.752 3.41016 22.752C3.00016 22.752 2.66016 22.412 2.66016 22.002C2.66016 17.732 6.85015 14.252 12.0002 14.252C17.1502 14.252 21.3401 17.732 21.3401 22.002C21.3401 22.412 21.0001 22.752 20.5901 22.752Z" fill="#0F172A"/>
</svg>
