<svg width="370" height="64" viewBox="0 0 370 64" fill="none" xmlns="http://www.w3.org/2000/svg">
<g clip-path="url(#paint0_angular_400_2364_clip_path)" data-figma-skip-parse="true"><g transform="matrix(-0.0101949 -0.0252349 0.0252349 -0.0101949 28.1949 30.7349)"><foreignObject x="-1520.69" y="-1520.69" width="3041.38" height="3041.38"><div xmlns="http://www.w3.org/1999/xhtml" style="background:conic-gradient(from 90deg,rgba(51, 63, 150, 0.8) 0deg,rgba(51, 63, 150, 1) 36deg,rgba(51, 63, 150, 1) 180deg,rgba(51, 63, 150, 0.8) 221.192deg,rgba(51, 63, 150, 0.7) 302.4deg,rgba(51, 63, 150, 0.8) 360deg);height:100%;width:100%;opacity:1"></div></foreignObject></g></g><path d="M23.4499 0.629883C17.1499 1.46988 11.2899 4.92988 8.06988 9.70988C7.15988 11.0799 5.74988 14.5999 5.32988 16.6199C4.86988 18.8299 4.86988 21.5699 5.32988 22.7699C5.85988 24.1599 5.68988 24.7499 3.82988 27.8899C1.84988 31.2799 0.379883 34.1499 0.379883 34.6499C0.379883 35.2199 1.89988 36.4999 3.13988 36.9899L4.27988 37.4099L4.40988 39.7099C4.48988 41.4399 4.63988 42.2999 4.99988 43.1599C5.39988 44.1099 5.52988 44.8699 5.62988 47.3099C5.75988 50.1799 5.77988 50.3199 6.38988 51.2099C6.82988 51.8399 7.39988 52.3099 8.28988 52.7499C9.50988 53.3599 9.65988 53.3799 12.3999 53.3799C13.9599 53.3799 16.0399 53.2999 17.0299 53.1899C19.6799 52.9199 19.7299 52.9599 19.9799 56.8599C20.0899 58.5499 20.1899 60.7599 20.1899 61.7899C20.1899 63.3099 20.2499 63.6199 20.4799 63.5399C20.6499 63.4799 21.1999 63.3099 21.6999 63.1799C24.8399 62.3599 40.2799 57.7399 42.6399 56.9199L44.1099 56.4099L44.0699 53.2299L44.0299 50.0499L41.3299 45.8599C38.9899 42.2199 38.5899 41.7099 38.2099 41.8199C37.9599 41.8799 37.1999 42.1399 36.4999 42.3499C28.8499 44.7299 20.7799 41.7999 16.4199 35.0999C14.4399 32.0699 13.7399 29.5999 13.7399 25.5799C13.7399 22.4999 13.9899 21.2199 15.1299 18.5899C16.2499 15.9599 19.0499 12.7499 21.7899 10.9599C24.8399 8.95988 29.6899 7.87988 33.3599 8.38988C40.3999 9.37988 45.6799 13.6599 48.0199 20.2699C49.7899 25.2799 48.8999 31.4099 45.7399 35.8599C45.3399 36.4099 45.0199 36.9299 45.0199 37.0199C45.0199 37.1299 45.5299 37.9299 46.1399 38.7899L47.2399 40.3899L48.2099 39.0799C50.5899 35.8999 52.6799 31.8499 53.4999 28.8399C53.8999 27.2999 53.9799 26.5399 53.9799 23.3599C53.9799 19.2099 53.6599 17.5199 52.2899 14.5799C48.9599 7.37988 43.1699 3.05988 34.2399 1.13988C31.3299 0.509883 26.1299 0.259883 23.4299 0.629883H23.4499Z" data-figma-gradient-fill="{&#34;type&#34;:&#34;GRADIENT_ANGULAR&#34;,&#34;stops&#34;:[{&#34;color&#34;:{&#34;r&#34;:0.20000000298023224,&#34;g&#34;:0.24705882370471954,&#34;b&#34;:0.58823531866073608,&#34;a&#34;:1.0},&#34;position&#34;:0.10000000149011612},{&#34;color&#34;:{&#34;r&#34;:0.20000000298023224,&#34;g&#34;:0.24705882370471954,&#34;b&#34;:0.58823531866073608,&#34;a&#34;:1.0},&#34;position&#34;:0.50},{&#34;color&#34;:{&#34;r&#34;:0.20000000298023224,&#34;g&#34;:0.24705882370471954,&#34;b&#34;:0.58823531866073608,&#34;a&#34;:0.80000001192092896},&#34;position&#34;:0.61442303657531738},{&#34;color&#34;:{&#34;r&#34;:0.20000000298023224,&#34;g&#34;:0.24705882370471954,&#34;b&#34;:0.58823531866073608,&#34;a&#34;:0.69999998807907104},&#34;position&#34;:0.83999997377395630},{&#34;color&#34;:{&#34;r&#34;:0.20000000298023224,&#34;g&#34;:0.24705882370471954,&#34;b&#34;:0.58823531866073608,&#34;a&#34;:0.80000001192092896},&#34;position&#34;:1.0}],&#34;stopsVar&#34;:[{&#34;color&#34;:{&#34;r&#34;:0.20000000298023224,&#34;g&#34;:0.24705882370471954,&#34;b&#34;:0.58823531866073608,&#34;a&#34;:1.0},&#34;position&#34;:0.10000000149011612},{&#34;color&#34;:{&#34;r&#34;:0.20000000298023224,&#34;g&#34;:0.24705882370471954,&#34;b&#34;:0.58823531866073608,&#34;a&#34;:1.0},&#34;position&#34;:0.50},{&#34;color&#34;:{&#34;r&#34;:0.20000000298023224,&#34;g&#34;:0.24705882370471954,&#34;b&#34;:0.58823531866073608,&#34;a&#34;:0.80000001192092896},&#34;position&#34;:0.61442303657531738},{&#34;color&#34;:{&#34;r&#34;:0.20000000298023224,&#34;g&#34;:0.24705882370471954,&#34;b&#34;:0.58823531866073608,&#34;a&#34;:0.69999998807907104},&#34;position&#34;:0.83999997377395630},{&#34;color&#34;:{&#34;r&#34;:0.20000000298023224,&#34;g&#34;:0.24705882370471954,&#34;b&#34;:0.58823531866073608,&#34;a&#34;:0.80000001192092896},&#34;position&#34;:1.0}],&#34;transform&#34;:{&#34;m00&#34;:-20.389762878417969,&#34;m01&#34;:50.469768524169922,&#34;m02&#34;:13.154877662658691,&#34;m10&#34;:-50.469768524169922,&#34;m11&#34;:-20.389764785766602,&#34;m12&#34;:66.164649963378906},&#34;opacity&#34;:1.0,&#34;blendMode&#34;:&#34;NORMAL&#34;,&#34;visible&#34;:true}"/>
<path d="M28.11 11.4799C23.12 12.5999 19.03 16.2199 17.28 21.0899C16.77 22.4799 16.73 22.9199 16.71 25.6799C16.71 29.1599 17 30.3599 18.48 32.9099C20.14 35.7299 22.04 37.4999 24.93 38.8899C27.12 39.9199 29.08 40.2799 31.99 40.1499C34.64 40.0199 36.31 39.5999 38.29 38.4899C38.9 38.1499 39.49 37.9399 39.58 38.0499C39.66 38.1299 41.69 41.2499 44.07 44.9599C50.68 55.2199 50.12 54.4399 50.92 54.4999C52.25 54.6299 53.2 53.4699 52.63 52.4099C52.4 51.9699 47.41 45.0999 45.91 43.1599C45.24 42.2499 42.08 37.5599 41.72 36.8999C41.51 36.4799 41.59 36.2699 42.71 34.9599C44.99 32.2399 45.98 29.5199 46 25.8799C46.02 23.1799 45.73 21.9399 44.5 19.3699C43.7 17.7099 43.26 17.0899 41.74 15.5599C39.74 13.5799 38.1 12.5899 35.48 11.7699C33.5 11.1599 30.11 11.0299 28.13 11.4799H28.11ZM33.63 13.7999C39.36 14.9599 43.57 20.0099 43.57 25.7199C43.57 27.4099 42.94 29.9799 42.16 31.4299C41.3 33.0299 38.92 35.3499 37.15 36.2499C35.06 37.3199 33.48 37.7499 31.36 37.7499C27.78 37.7499 24.98 36.6299 22.6 34.2099C19.27 30.8399 18.2 26.2299 19.69 21.7399C20.91 18.0699 24.09 15.1299 28.01 14.0099C30.18 13.3999 31.46 13.3599 33.63 13.7999Z" fill="url(#paint1_linear_400_2364)"/>
<path d="M24 31.8691L24.0002 33H28V29H24.0002V29.877C24.0002 30.3926 24.0002 31.3105 24 31.8691Z" fill="url(#paint2_linear_400_2364)"/>
<path d="M25.9318 27.6667H28V25.5697V23.6667H24V27.6667H25.9318Z" fill="url(#paint3_linear_400_2364)"/>
<path d="M26.0042 22.3333H28V20.2636V18.3333H24V22.3333H26.0042Z" fill="url(#paint4_linear_400_2364)"/>
<path d="M31 32.9901H33V29H31.0631H29V31.0643V33H31.0211L31 32.9901Z" fill="url(#paint5_linear_400_2364)"/>
<path d="M31.0159 27.6667H33V23.6667H29V25.697V27.6667H31.0159Z" fill="url(#paint6_linear_400_2364)"/>
<path d="M31.0042 22.3333H33V20.2636V18.3333H29V22.3333H31.0042Z" fill="url(#paint7_linear_400_2364)"/>
<path d="M36.0042 27.6667H38V25.5971V23.6667H34V27.6667H36.0042Z" fill="url(#paint8_linear_400_2364)"/>
<path d="M36.0042 22.3333H38V20.2636V18.3333H34V22.3333H36.0042Z" fill="url(#paint9_linear_400_2364)"/>
<path d="M80.8544 25.2393L75.9773 18.1603L78.138 16.8109L83.8794 25.2393H80.8544ZM71.3265 25.2393V10.7076H73.9606V25.2393H71.3265ZM73.158 19.1152V16.7902H78.0145V19.1152H73.158ZM78.385 18.2848L75.9361 17.9527L80.8544 10.7076H83.6942L78.385 18.2848Z" fill="#333F96"/>
<path d="M83.6227 25.2393L90.1049 10.7076H92.739L99.2418 25.2393H96.4431L90.8664 12.14H91.9364L86.3802 25.2393H83.6227ZM86.6066 21.8762L87.3268 19.7588H95.1055L95.8258 21.8762H86.6066Z" fill="#333F96"/>
<path d="M101.471 25.2393V10.7076H112.687V12.9289H104.105V16.4995H108.365C110.094 16.4995 111.404 16.8663 112.296 17.5998C113.201 18.3194 113.654 19.3713 113.654 20.7552C113.654 22.1807 113.153 23.2879 112.152 24.0768C111.164 24.8518 109.765 25.2393 107.954 25.2393H101.471ZM104.105 23.1633H107.81C108.839 23.1633 109.621 22.9627 110.156 22.5613C110.691 22.16 110.958 21.5787 110.958 20.8175C110.958 19.3228 109.909 18.5755 107.81 18.5755H104.105V23.1633Z" fill="#333F96"/>
<path d="M116.604 25.2393V10.7076H119.238V21.0251L126.976 10.7076H129.466V25.2393H126.831V14.9425L119.094 25.2393H116.604Z" fill="#333F96"/>
<path d="M143.629 10.7076H146.304V25.2393H143.629V10.7076ZM136.18 25.2393H133.504V10.7076H136.18V25.2393ZM143.835 19.0114H135.953V16.7071H143.835V19.0114Z" fill="#333F96"/>
<path d="M152.814 16.7486H159.976V18.9699H152.814V16.7486ZM153.02 22.9765H161.149V25.2393H150.345V10.7076H160.861V12.9704H153.02V22.9765Z" fill="#333F96"/>
<path d="M167.156 25.2393V12.3268L167.794 12.9911H162.403V10.7076H174.585V12.9911H169.193L169.811 12.3268V25.2393H167.156Z" fill="#333F96"/>
<path d="M189.268 25.4469C188.143 25.4469 187.107 25.2601 186.16 24.8864C185.214 24.5127 184.39 23.9937 183.691 23.3294C182.991 22.6513 182.449 21.8624 182.065 20.9628C181.681 20.0494 181.489 19.0529 181.489 17.9734C181.489 16.8939 181.681 15.9044 182.065 15.0048C182.449 14.0914 182.991 13.3025 183.691 12.6382C184.39 11.9601 185.214 11.4342 186.16 11.0605C187.107 10.6868 188.136 10.5 189.247 10.5C190.372 10.5 191.401 10.6868 192.334 11.0605C193.28 11.4342 194.104 11.9601 194.803 12.6382C195.503 13.3025 196.045 14.0914 196.429 15.0048C196.813 15.9044 197.005 16.8939 197.005 17.9734C197.005 19.0529 196.813 20.0494 196.429 20.9628C196.045 21.8762 195.503 22.6651 194.803 23.3294C194.104 23.9937 193.28 24.5127 192.334 24.8864C191.401 25.2601 190.379 25.4469 189.268 25.4469ZM189.247 23.0803C189.974 23.0803 190.646 22.9557 191.264 22.7066C191.881 22.4575 192.416 22.1046 192.869 21.6479C193.322 21.1773 193.671 20.6376 193.918 20.0286C194.179 19.4059 194.309 18.7208 194.309 17.9734C194.309 17.2261 194.179 16.548 193.918 15.939C193.671 15.3162 193.322 14.7765 192.869 14.3198C192.416 13.8492 191.881 13.4894 191.264 13.2403C190.646 12.9911 189.974 12.8666 189.247 12.8666C188.52 12.8666 187.848 12.9911 187.23 13.2403C186.627 13.4894 186.092 13.8492 185.625 14.3198C185.172 14.7765 184.816 15.3162 184.555 15.939C184.308 16.548 184.185 17.2261 184.185 17.9734C184.185 18.707 184.308 19.3851 184.555 20.0079C184.816 20.6307 185.172 21.1773 185.625 21.6479C186.078 22.1046 186.613 22.4575 187.23 22.7066C187.848 22.9557 188.52 23.0803 189.247 23.0803Z" fill="#333F96"/>
<path d="M199.983 25.2393V10.7076H212.722V25.2393H210.087V12.3268L210.705 12.9911H202L202.617 12.3268V25.2393H199.983Z" fill="#333F96"/>
<path d="M219.253 16.7486H226.414V18.9699H219.253V16.7486ZM219.459 22.9765H227.587V25.2393H216.783V10.7076H227.299V12.9704H219.459V22.9765Z" fill="#333F96"/>
<path d="M230.569 25.2393V10.7076H236.496C237.772 10.7076 238.863 10.9152 239.768 11.3304C240.687 11.7456 241.394 12.3407 241.888 13.1157C242.382 13.8907 242.628 14.8111 242.628 15.8767C242.628 16.9424 242.382 17.8627 241.888 18.6378C241.394 19.4128 240.687 20.0079 239.768 20.4231C238.863 20.8383 237.772 21.0459 236.496 21.0459H232.051L233.245 19.7795V25.2393H230.569ZM233.245 20.0702L232.051 18.7623H236.373C237.552 18.7623 238.437 18.5132 239.027 18.015C239.631 17.5029 239.933 16.7902 239.933 15.8767C239.933 14.9495 239.631 14.2367 239.027 13.7385C238.437 13.2403 237.552 12.9911 236.373 12.9911H232.051L233.245 11.6625V20.0702Z" fill="#333F96"/>
<path d="M242.604 25.2393L249.087 10.7076H251.721L258.224 25.2393H255.425L249.848 12.14H250.918L245.362 25.2393H242.604ZM245.588 21.8762L246.308 19.7588H254.087L254.807 21.8762H245.588Z" fill="#333F96"/>
<path d="M262.734 25.2393V12.3268L263.372 12.9911H257.98V10.7076H270.163V12.9911H264.771L265.389 12.3268V25.2393H262.734Z" fill="#333F96"/>
<path d="M278.957 25.4469C277.832 25.4469 276.796 25.2601 275.85 24.8864C274.903 24.5127 274.08 23.9937 273.38 23.3294C272.681 22.6513 272.139 21.8624 271.755 20.9628C271.371 20.0494 271.179 19.0529 271.179 17.9734C271.179 16.8939 271.371 15.9044 271.755 15.0048C272.139 14.0914 272.681 13.3025 273.38 12.6382C274.08 11.9601 274.903 11.4342 275.85 11.0605C276.796 10.6868 277.825 10.5 278.937 10.5C280.062 10.5 281.091 10.6868 282.023 11.0605C282.97 11.4342 283.793 11.9601 284.493 12.6382C285.193 13.3025 285.734 14.0914 286.119 15.0048C286.503 15.9044 286.695 16.8939 286.695 17.9734C286.695 19.0529 286.503 20.0494 286.119 20.9628C285.734 21.8762 285.193 22.6651 284.493 23.3294C283.793 23.9937 282.97 24.5127 282.023 24.8864C281.091 25.2601 280.068 25.4469 278.957 25.4469ZM278.937 23.0803C279.664 23.0803 280.336 22.9557 280.953 22.7066C281.571 22.4575 282.106 22.1046 282.558 21.6479C283.011 21.1773 283.361 20.6376 283.608 20.0286C283.869 19.4059 283.999 18.7208 283.999 17.9734C283.999 17.2261 283.869 16.548 283.608 15.939C283.361 15.3162 283.011 14.7765 282.558 14.3198C282.106 13.8492 281.571 13.4894 280.953 13.2403C280.336 12.9911 279.664 12.8666 278.937 12.8666C278.21 12.8666 277.537 12.9911 276.92 13.2403C276.316 13.4894 275.781 13.8492 275.315 14.3198C274.862 14.7765 274.505 15.3162 274.245 15.939C273.998 16.548 273.874 17.2261 273.874 17.9734C273.874 18.707 273.998 19.3851 274.245 20.0079C274.505 20.6307 274.862 21.1773 275.315 21.6479C275.768 22.1046 276.303 22.4575 276.92 22.7066C277.537 22.9557 278.21 23.0803 278.937 23.0803Z" fill="#333F96"/>
<path d="M289.652 25.2393V10.7076H295.579C296.855 10.7076 297.946 10.9152 298.851 11.3304C299.77 11.7456 300.477 12.3407 300.971 13.1157C301.465 13.8907 301.712 14.8111 301.712 15.8767C301.712 16.9424 301.465 17.8627 300.971 18.6378C300.477 19.4128 299.77 20.0079 298.851 20.4231C297.946 20.8383 296.855 21.0459 295.579 21.0459H291.134L292.328 19.7795V25.2393H289.652ZM292.328 20.0702L291.134 18.7623H295.456C296.635 18.7623 297.52 18.5132 298.11 18.015C298.714 17.5029 299.016 16.7902 299.016 15.8767C299.016 14.9495 298.714 14.2367 298.11 13.7385C297.52 13.2403 296.635 12.9911 295.456 12.9911H291.134L292.328 11.6625V20.0702Z" fill="#333F96"/>
<path d="M301.687 25.2393L308.17 10.7076H310.804L317.307 25.2393H314.508L308.931 12.14H310.001L304.445 25.2393H301.687ZM304.671 21.8762L305.392 19.7588H313.17L313.891 21.8762H304.671Z" fill="#333F96"/>
<path d="M77.994 50.4899C76.8964 50.4899 75.8812 50.3099 74.9483 49.9501C74.0292 49.5764 73.2266 49.0575 72.5406 48.3931C71.8684 47.715 71.3402 46.9261 70.9561 46.0265C70.5719 45.127 70.3799 44.1374 70.3799 43.0579C70.3799 41.9784 70.5719 40.9889 70.9561 40.0893C71.3402 39.1897 71.8753 38.4078 72.5612 37.7435C73.2472 37.0653 74.0497 36.5463 74.9689 36.1865C75.9018 35.8128 76.917 35.626 78.0145 35.626C79.1258 35.626 80.1479 35.8198 81.0807 36.2073C82.0274 36.5809 82.8299 37.1415 83.4884 37.8888L82.1508 39.1967C81.6021 38.6154 80.9847 38.1864 80.2988 37.9096C79.6128 37.6189 78.8788 37.4736 78.0969 37.4736C77.2874 37.4736 76.5329 37.612 75.8332 37.8888C75.1473 38.1656 74.5505 38.5531 74.0429 39.0513C73.5353 39.5496 73.1374 40.1447 72.8493 40.8367C72.5749 41.5148 72.4377 42.2552 72.4377 43.0579C72.4377 43.8606 72.5749 44.608 72.8493 45.3C73.1374 45.9781 73.5353 46.5663 74.0429 47.0645C74.5505 47.5628 75.1473 47.9503 75.8332 48.2271C76.5329 48.5039 77.2874 48.6423 78.0969 48.6423C78.8788 48.6423 79.6128 48.5039 80.2988 48.2271C80.9847 47.9364 81.6021 47.4936 82.1508 46.8985L83.4884 48.2063C82.8299 48.9537 82.0274 49.5211 81.0807 49.9086C80.1479 50.2961 79.1189 50.4899 77.994 50.4899Z" fill="#333F96"/>
<path d="M86.3236 50.3238V35.7921H88.3609V47.0023L96.8804 35.7921H98.7737V50.3238H96.757V39.1344L88.2169 50.3238H86.3236Z" fill="#333F96"/>
<path d="M109.706 50.4899C108.608 50.4899 107.593 50.3099 106.66 49.9501C105.741 49.5764 104.939 49.0575 104.253 48.3931C103.58 47.715 103.052 46.9261 102.668 46.0265C102.284 45.127 102.092 44.1374 102.092 43.0579C102.092 41.9784 102.284 40.9889 102.668 40.0893C103.052 39.1897 103.587 38.4078 104.273 37.7435C104.959 37.0653 105.762 36.5463 106.681 36.1865C107.614 35.8128 108.629 35.626 109.726 35.626C110.838 35.626 111.86 35.8198 112.793 36.2073C113.739 36.5809 114.542 37.1415 115.2 37.8888L113.863 39.1967C113.314 38.6154 112.697 38.1864 112.011 37.9096C111.325 37.6189 110.591 37.4736 109.809 37.4736C108.999 37.4736 108.245 37.612 107.545 37.8888C106.859 38.1656 106.262 38.5531 105.755 39.0513C105.247 39.5496 104.849 40.1447 104.561 40.8367C104.287 41.5148 104.15 42.2552 104.15 43.0579C104.15 43.8606 104.287 44.608 104.561 45.3C104.849 45.9781 105.247 46.5663 105.755 47.0645C106.262 47.5628 106.859 47.9503 107.545 48.2271C108.245 48.5039 108.999 48.6423 109.809 48.6423C110.591 48.6423 111.325 48.5039 112.011 48.2271C112.697 47.9364 113.314 47.4936 113.863 46.8985L115.2 48.2063C114.542 48.9537 113.739 49.5211 112.793 49.9086C111.86 50.2961 110.831 50.4899 109.706 50.4899Z" fill="#333F96"/>
<path d="M120.818 50.3238V37.0584L121.332 37.5982H115.899V35.7921H127.773V37.5982H122.34L122.834 37.0584V50.3238H120.818Z" fill="#333F96"/>
<path d="M132.147 42.0615H139.555V43.826H132.147V42.0615ZM132.332 48.5177H140.728V50.3238H130.274V35.7921H140.44V37.5982H132.332V48.5177Z" fill="#333F96"/>
<path d="M143.96 50.3238V35.7921H145.647L152.109 46.7739H151.203L157.583 35.7921H159.27L159.291 50.3238H157.315L157.295 38.9268H157.768L152.088 48.5592H151.142L145.421 38.9268H145.935V50.3238H143.96Z" fill="#333F96"/>
<path d="M170.092 40.8574C171.793 40.8574 173.104 41.2449 174.023 42.02C174.942 42.7811 175.402 43.9229 175.402 45.4453C175.402 47.0507 174.901 48.2686 173.899 49.099C172.912 49.9155 171.519 50.3238 169.722 50.3238H163.775V35.7921H165.812V40.8574H170.092ZM169.64 48.6838C170.833 48.6838 171.745 48.4139 172.377 47.8742C173.021 47.3344 173.344 46.5386 173.344 45.4868C173.344 44.4627 173.028 43.7084 172.397 43.224C171.766 42.7396 170.847 42.4974 169.64 42.4974H165.812V48.6838H169.64ZM177.686 50.3238V35.7921H179.723V50.3238H177.686Z" fill="#333F96"/>
<path d="M196.18 50.4899C195.083 50.4899 194.067 50.3099 193.135 49.9501C192.215 49.5764 191.413 49.0575 190.727 48.3931C190.055 47.715 189.526 46.9261 189.142 46.0265C188.758 45.127 188.566 44.1374 188.566 43.0579C188.566 41.9784 188.758 40.9889 189.142 40.0893C189.526 39.1897 190.061 38.4078 190.747 37.7435C191.433 37.0653 192.236 36.5463 193.155 36.1865C194.088 35.8128 195.103 35.626 196.201 35.626C197.312 35.626 198.334 35.8198 199.267 36.2073C200.214 36.5809 201.016 37.1415 201.675 37.8888L200.337 39.1967C199.788 38.6154 199.171 38.1864 198.485 37.9096C197.799 37.6189 197.065 37.4736 196.283 37.4736C195.474 37.4736 194.719 37.612 194.019 37.8888C193.333 38.1656 192.737 38.5531 192.229 39.0513C191.721 39.5496 191.324 40.1447 191.036 40.8367C190.761 41.5148 190.624 42.2552 190.624 43.0579C190.624 43.8606 190.761 44.608 191.036 45.3C191.324 45.9781 191.721 46.5663 192.229 47.0645C192.737 47.5628 193.333 47.9503 194.019 48.2271C194.719 48.5039 195.474 48.6423 196.283 48.6423C197.065 48.6423 197.799 48.5039 198.485 48.2271C199.171 47.9364 199.788 47.4936 200.337 46.8985L201.675 48.2063C201.016 48.9537 200.214 49.5211 199.267 49.9086C198.334 50.2961 197.305 50.4899 196.18 50.4899Z" fill="#333F96"/>
<path d="M204.51 50.3238V35.7921H215.375V37.5566H206.547V41.7086H211.033C212.748 41.7086 214.051 42.0684 214.943 42.7881C215.835 43.5077 216.281 44.5526 216.281 45.9228C216.281 47.3344 215.794 48.4208 214.82 49.182C213.859 49.9432 212.481 50.3238 210.683 50.3238H204.51ZM206.547 48.6838H210.601C211.795 48.6838 212.693 48.4554 213.297 47.9987C213.914 47.542 214.223 46.8639 214.223 45.9643C214.223 44.2205 213.016 43.3486 210.601 43.3486H206.547V48.6838Z" fill="#333F96"/>
<path d="M226.044 50.4899C224.947 50.4899 223.925 50.303 222.978 49.9294C222.045 49.5557 221.236 49.0367 220.55 48.3724C219.864 47.6942 219.329 46.9054 218.945 46.0058C218.56 45.1062 218.368 44.1236 218.368 43.0579C218.368 41.9923 218.56 41.0097 218.945 40.1101C219.329 39.2105 219.864 38.4285 220.55 37.7642C221.236 37.0861 222.045 36.5602 222.978 36.1865C223.911 35.8128 224.933 35.626 226.044 35.626C227.142 35.626 228.15 35.8128 229.069 36.1865C230.002 36.5463 230.812 37.0653 231.498 37.7435C232.197 38.4078 232.732 39.1897 233.103 40.0893C233.487 40.9889 233.679 41.9784 233.679 43.0579C233.679 44.1374 233.487 45.127 233.103 46.0265C232.732 46.9261 232.197 47.715 231.498 48.3931C230.812 49.0575 230.002 49.5764 229.069 49.9501C228.15 50.3099 227.142 50.4899 226.044 50.4899ZM226.044 48.6423C226.84 48.6423 227.574 48.5039 228.246 48.2271C228.932 47.9503 229.522 47.5628 230.016 47.0645C230.523 46.5525 230.914 45.9574 231.189 45.2792C231.477 44.6011 231.621 43.8606 231.621 43.0579C231.621 42.2552 231.477 41.5148 231.189 40.8367C230.914 40.1585 230.523 39.5703 230.016 39.0721C229.522 38.56 228.932 38.1656 228.246 37.8888C227.574 37.612 226.84 37.4736 226.044 37.4736C225.235 37.4736 224.487 37.612 223.801 37.8888C223.129 38.1656 222.539 38.56 222.031 39.0721C221.524 39.5703 221.126 40.1585 220.838 40.8367C220.563 41.5148 220.426 42.2552 220.426 43.0579C220.426 43.8606 220.563 44.6011 220.838 45.2792C221.126 45.9574 221.524 46.5525 222.031 47.0645C222.539 47.5628 223.129 47.9503 223.801 48.2271C224.487 48.5039 225.235 48.6423 226.044 48.6423Z" fill="#333F96"/>
<path d="M237.006 50.3238V35.7921H242.623C243.886 35.7921 244.963 35.9928 245.854 36.3941C246.746 36.7955 247.432 37.3767 247.912 38.1379C248.392 38.8991 248.632 39.8056 248.632 40.8574C248.632 41.9092 248.392 42.8157 247.912 43.5769C247.432 44.3243 246.746 44.9055 245.854 45.3207C244.963 45.7221 243.886 45.9228 242.623 45.9228H238.137L239.063 44.9471V50.3238H237.006ZM239.063 45.1546L238.137 44.1167H242.562C243.879 44.1167 244.873 43.833 245.546 43.2655C246.232 42.6981 246.575 41.8954 246.575 40.8574C246.575 39.8194 246.232 39.0167 245.546 38.4493C244.873 37.8819 243.879 37.5982 242.562 37.5982H238.137L239.063 36.5602V45.1546Z" fill="#333F96"/>
<path d="M248.775 50.3238L255.299 35.7921H257.336L263.88 50.3238H261.719L255.896 36.9546H256.719L250.895 50.3238H248.775ZM251.553 46.6909L252.109 45.0301H260.217L260.814 46.6909H251.553Z" fill="#333F96"/>
<path d="M281.462 49.3481V37.5982H275.144L275.041 40.6498C275 41.674 274.931 42.6566 274.835 43.5977C274.753 44.5388 274.63 45.3899 274.465 46.1511C274.3 46.8985 274.067 47.5143 273.765 47.9987C273.477 48.4831 273.107 48.7807 272.654 48.8914L270.432 48.5177C270.967 48.5592 271.406 48.3793 271.749 47.978C272.105 47.5628 272.38 46.9884 272.572 46.2549C272.778 45.5076 272.928 44.6426 273.024 43.66C273.121 42.6635 273.189 41.5978 273.23 40.463L273.374 35.7921H283.499V49.3481H281.462ZM269.917 53.5L269.938 48.5177H285.619V53.5H283.705V50.3238H271.852L271.831 53.5H269.917Z" fill="#333F96"/>
<path d="M286.436 50.3238L292.959 35.7921H294.996L301.54 50.3238H299.38L293.556 36.9546H294.379L288.555 50.3238H286.436ZM289.214 46.6909L289.77 45.0301H297.877L298.474 46.6909H289.214Z" fill="#333F96"/>
<path d="M314.357 35.7921H316.415V50.3238H314.357V35.7921ZM306.084 50.3238H304.027V35.7921H306.084V50.3238ZM314.542 43.8468H305.879V42.0407H314.542V43.8468Z" fill="#333F96"/>
<path d="M331.238 35.7921H333.296V50.3238H331.238V35.7921ZM322.965 50.3238H320.908V35.7921H322.965V50.3238ZM331.423 43.8468H322.76V42.0407H331.423V43.8468Z" fill="#333F96"/>
<path d="M344.106 40.8574C345.807 40.8574 347.117 41.2449 348.037 42.02C348.956 42.7811 349.415 43.9229 349.415 45.4453C349.415 47.0507 348.915 48.2686 347.913 49.099C346.925 49.9155 345.533 50.3238 343.736 50.3238H337.788V35.7921H339.826V40.8574H344.106ZM343.653 48.6838C344.847 48.6838 345.759 48.4139 346.39 47.8742C347.035 47.3344 347.357 46.5386 347.357 45.4868C347.357 44.4627 347.042 43.7084 346.411 43.224C345.78 42.7396 344.861 42.4974 343.653 42.4974H339.826V48.6838H343.653ZM351.7 50.3238V35.7921H353.737V50.3238H351.7Z" fill="#333F96"/>
<path d="M356.683 35.7921H359.049L362.815 41.1065L366.581 35.7921H368.989L364.112 42.7673L369.38 50.3238H366.952L362.815 44.5319L358.7 50.3238H356.333L361.581 42.8503L356.683 35.7921Z" fill="#333F96"/>
<defs>
<clipPath id="paint0_angular_400_2364_clip_path"><path d="M23.4499 0.629883C17.1499 1.46988 11.2899 4.92988 8.06988 9.70988C7.15988 11.0799 5.74988 14.5999 5.32988 16.6199C4.86988 18.8299 4.86988 21.5699 5.32988 22.7699C5.85988 24.1599 5.68988 24.7499 3.82988 27.8899C1.84988 31.2799 0.379883 34.1499 0.379883 34.6499C0.379883 35.2199 1.89988 36.4999 3.13988 36.9899L4.27988 37.4099L4.40988 39.7099C4.48988 41.4399 4.63988 42.2999 4.99988 43.1599C5.39988 44.1099 5.52988 44.8699 5.62988 47.3099C5.75988 50.1799 5.77988 50.3199 6.38988 51.2099C6.82988 51.8399 7.39988 52.3099 8.28988 52.7499C9.50988 53.3599 9.65988 53.3799 12.3999 53.3799C13.9599 53.3799 16.0399 53.2999 17.0299 53.1899C19.6799 52.9199 19.7299 52.9599 19.9799 56.8599C20.0899 58.5499 20.1899 60.7599 20.1899 61.7899C20.1899 63.3099 20.2499 63.6199 20.4799 63.5399C20.6499 63.4799 21.1999 63.3099 21.6999 63.1799C24.8399 62.3599 40.2799 57.7399 42.6399 56.9199L44.1099 56.4099L44.0699 53.2299L44.0299 50.0499L41.3299 45.8599C38.9899 42.2199 38.5899 41.7099 38.2099 41.8199C37.9599 41.8799 37.1999 42.1399 36.4999 42.3499C28.8499 44.7299 20.7799 41.7999 16.4199 35.0999C14.4399 32.0699 13.7399 29.5999 13.7399 25.5799C13.7399 22.4999 13.9899 21.2199 15.1299 18.5899C16.2499 15.9599 19.0499 12.7499 21.7899 10.9599C24.8399 8.95988 29.6899 7.87988 33.3599 8.38988C40.3999 9.37988 45.6799 13.6599 48.0199 20.2699C49.7899 25.2799 48.8999 31.4099 45.7399 35.8599C45.3399 36.4099 45.0199 36.9299 45.0199 37.0199C45.0199 37.1299 45.5299 37.9299 46.1399 38.7899L47.2399 40.3899L48.2099 39.0799C50.5899 35.8999 52.6799 31.8499 53.4999 28.8399C53.8999 27.2999 53.9799 26.5399 53.9799 23.3599C53.9799 19.2099 53.6599 17.5199 52.2899 14.5799C48.9599 7.37988 43.1699 3.05988 34.2399 1.13988C31.3299 0.509883 26.1299 0.259883 23.4299 0.629883H23.4499Z"/></clipPath><linearGradient id="paint1_linear_400_2364" x1="12" y1="24" x2="58.5" y2="27" gradientUnits="userSpaceOnUse">
<stop stop-color="#6A73B2"/>
<stop offset="0.706731" stop-color="#333F96"/>
</linearGradient>
<linearGradient id="paint2_linear_400_2364" x1="24" y1="31" x2="28" y2="31" gradientUnits="userSpaceOnUse">
<stop stop-color="#7078B5"/>
<stop offset="1" stop-color="#333F96"/>
</linearGradient>
<linearGradient id="paint3_linear_400_2364" x1="24" y1="25.6667" x2="28" y2="25.6667" gradientUnits="userSpaceOnUse">
<stop stop-color="#7078B5"/>
<stop offset="1" stop-color="#333F96"/>
</linearGradient>
<linearGradient id="paint4_linear_400_2364" x1="24" y1="20.3333" x2="28" y2="20.3333" gradientUnits="userSpaceOnUse">
<stop stop-color="#7078B5"/>
<stop offset="1" stop-color="#333F96"/>
</linearGradient>
<linearGradient id="paint5_linear_400_2364" x1="29" y1="31" x2="33" y2="31" gradientUnits="userSpaceOnUse">
<stop stop-color="#7078B5"/>
<stop offset="1" stop-color="#333F96"/>
</linearGradient>
<linearGradient id="paint6_linear_400_2364" x1="29" y1="25.6667" x2="33" y2="25.6667" gradientUnits="userSpaceOnUse">
<stop stop-color="#7078B5"/>
<stop offset="1" stop-color="#333F96"/>
</linearGradient>
<linearGradient id="paint7_linear_400_2364" x1="29" y1="20.3333" x2="33" y2="20.3333" gradientUnits="userSpaceOnUse">
<stop stop-color="#7078B5"/>
<stop offset="1" stop-color="#333F96"/>
</linearGradient>
<linearGradient id="paint8_linear_400_2364" x1="34" y1="25.6667" x2="38" y2="25.6667" gradientUnits="userSpaceOnUse">
<stop stop-color="#7078B5"/>
<stop offset="1" stop-color="#333F96"/>
</linearGradient>
<linearGradient id="paint9_linear_400_2364" x1="34" y1="20.3333" x2="38" y2="20.3333" gradientUnits="userSpaceOnUse">
<stop stop-color="#7078B5"/>
<stop offset="1" stop-color="#333F96"/>
</linearGradient>
</defs>
</svg>
